<svg xmlns="http://www.w3.org/2000/svg" viewBox="0 0 900 360" width="100%" height="100%" style="background:#0b0f19; font-family:-apple-system, BlinkMacSystemFont, 'Segoe UI', Roboto, Helvetica, Arial, sans-serif; border-radius:12px; overflow:hidden;">
  <defs>
    <linearGradient id="bg-card" x1="0%" y1="0%" x2="100%" y2="100%">
      <stop offset="0%" stop-color="#1e293b" stop-opacity="0.9"/>
      <stop offset="100%" stop-color="#0f172a" stop-opacity="0.95"/>
    </linearGradient>
    <linearGradient id="grad-cyan" x1="0%" y1="0%" x2="100%" y2="100%">
      <stop offset="0%" stop-color="#38bdf8"/>
      <stop offset="100%" stop-color="#0284c7"/>
    </linearGradient>
    <linearGradient id="grad-green" x1="0%" y1="0%" x2="100%" y2="100%">
      <stop offset="0%" stop-color="#34d399"/>
      <stop offset="100%" stop-color="#059669"/>
    </linearGradient>
    <linearGradient id="grad-purple" x1="0%" y1="0%" x2="100%" y2="100%">
      <stop offset="0%" stop-color="#c084fc"/>
      <stop offset="100%" stop-color="#7e22ce"/>
    </linearGradient>
    <linearGradient id="grad-amber" x1="0%" y1="0%" x2="100%" y2="100%">
      <stop offset="0%" stop-color="#fbbf24"/>
      <stop offset="100%" stop-color="#d97706"/>
    </linearGradient>
    <linearGradient id="grad-rose" x1="0%" y1="0%" x2="100%" y2="100%">
      <stop offset="0%" stop-color="#fb7185"/>
      <stop offset="100%" stop-color="#e11d48"/>
    </linearGradient>
    <linearGradient id="grad-blue" x1="0%" y1="0%" x2="100%" y2="100%">
      <stop offset="0%" stop-color="#60a5fa"/>
      <stop offset="100%" stop-color="#2563eb"/>
    </linearGradient>
    <filter id="shadow" x="-10%" y="-10%" width="130%" height="130%">
      <feDropShadow dx="0" dy="4" stdDeviation="6" flood-color="#000" flood-opacity="0.4"/>
    </filter>
    <filter id="glow-cyan" x="-20%" y="-20%" width="140%" height="140%">
      <feDropShadow dx="0" dy="0" stdDeviation="8" flood-color="#38bdf8" flood-opacity="0.3"/>
    </filter>
    <marker id="arrow" viewBox="0 0 10 10" refX="6" refY="5" markerWidth="6" markerHeight="6" orient="auto-start-reverse">
      <path d="M 0 1 L 10 5 L 0 9 z" fill="#64748b"/>
    </marker>
    <marker id="arrow-cyan" viewBox="0 0 10 10" refX="6" refY="5" markerWidth="6" markerHeight="6" orient="auto-start-reverse">
      <path d="M 0 1 L 10 5 L 0 9 z" fill="#38bdf8"/>
    </marker>
    <marker id="arrow-green" viewBox="0 0 10 10" refX="6" refY="5" markerWidth="6" markerHeight="6" orient="auto-start-reverse">
      <path d="M 0 1 L 10 5 L 0 9 z" fill="#34d399"/>
    </marker>
    <marker id="arrow-rose" viewBox="0 0 10 10" refX="6" refY="5" markerWidth="6" markerHeight="6" orient="auto-start-reverse">
      <path d="M 0 1 L 10 5 L 0 9 z" fill="#fb7185"/>
    </marker>
  </defs>
  <!-- Background Pattern Grid -->
  <pattern id="grid" width="30" height="30" patternUnits="userSpaceOnUse">
    <path d="M 30 0 L 0 0 0 30" fill="none" stroke="#1e293b" stroke-width="0.5" stroke-opacity="0.5"/>
  </pattern>
  <rect width="100%" height="100%" fill="url(#grid)"/>

  <text x="450" y="35" fill="#f8fafc" font-size="15" font-weight="700" text-anchor="middle">REALTIME WEBSOCKET STREAM &amp; POSTGRES WAL EVENT</text>
  
  <!-- Lifelines -->
  <g transform="translate(60, 60)">
    <rect width="140" height="40" rx="8" fill="url(#bg-card)" stroke="#38bdf8" stroke-width="1.5"/>
    <text x="70" y="25" fill="#38bdf8" font-size="12" font-weight="700" text-anchor="middle">👩 Alice (Client A)</text>
    <line x1="70" y1="40" x2="70" y2="280" stroke="#334155" stroke-width="1.5" stroke-dasharray="4,4"/>
  </g>

  <g transform="translate(300, 60)">
    <rect width="140" height="40" rx="8" fill="url(#bg-card)" stroke="#94a3b8" stroke-width="1.5"/>
    <text x="70" y="25" fill="#cbd5e1" font-size="12" font-weight="700" text-anchor="middle">🌐 Supabase API</text>
    <line x1="70" y1="40" x2="70" y2="280" stroke="#334155" stroke-width="1.5" stroke-dasharray="4,4"/>
  </g>

  <g transform="translate(500, 60)">
    <rect width="150" height="40" rx="8" fill="url(#bg-card)" stroke="#fbbf24" stroke-width="1.5"/>
    <text x="75" y="25" fill="#fbbf24" font-size="12" font-weight="700" text-anchor="middle">🐘 Postgres (WAL)</text>
    <line x1="75" y1="40" x2="75" y2="280" stroke="#334155" stroke-width="1.5" stroke-dasharray="4,4"/>
  </g>

  <g transform="translate(710, 60)">
    <rect width="140" height="40" rx="8" fill="url(#bg-card)" stroke="#34d399" stroke-width="1.5"/>
    <text x="70" y="25" fill="#34d399" font-size="12" font-weight="700" text-anchor="middle">👨 Bob (Client B)</text>
    <line x1="70" y1="40" x2="70" y2="280" stroke="#334155" stroke-width="1.5" stroke-dasharray="4,4"/>
  </g>

  <!-- Step 0: Bob Subscribes -->
  <line x1="780" y1="120" x2="380" y2="120" stroke="#34d399" stroke-width="1.5" stroke-dasharray="4,4" marker-end="url(#arrow-green)"/>
  <rect x="420" y="103" width="310" height="20" rx="4" fill="#0f172a"/>
  <text x="575" y="117" fill="#34d399" font-size="11" font-weight="600" text-anchor="middle">1. Bob subscribes: channel('recipe-123')</text>

  <!-- Step 1: Alice Posts -->
  <line x1="130" y1="160" x2="360" y2="160" stroke="#38bdf8" stroke-width="2" marker-end="url(#arrow-cyan)"/>
  <rect x="145" y="143" width="200" height="20" rx="4" fill="#0f172a"/>
  <text x="245" y="157" fill="#38bdf8" font-size="11" font-weight="600" text-anchor="middle">2. Alice POST /rest/v1/comments</text>

  <!-- Step 2: DB Insert -->
  <line x1="380" y1="195" x2="560" y2="195" stroke="#94a3b8" stroke-width="2" marker-end="url(#arrow)"/>
  <rect x="395" y="178" width="150" height="20" rx="4" fill="#0f172a"/>
  <text x="470" y="192" fill="#cbd5e1" font-size="11" font-weight="600" text-anchor="middle">3. INSERT into comments</text>

  <!-- Step 3: WAL Broadcast -->
  <line x1="580" y1="230" x2="770" y2="230" stroke="#34d399" stroke-width="2.5" marker-end="url(#arrow-green)"/>
  <rect x="590" y="213" width="170" height="20" rx="4" fill="#0f172a" stroke="#34d399" stroke-width="1"/>
  <text x="675" y="227" fill="#34d399" font-size="11" font-weight="700" text-anchor="middle">4. Push WebSocket Event</text>

  <!-- Step 4: Bob UI Updates -->
  <rect x="700" y="255" width="160" height="30" rx="6" fill="#065f46" stroke="#34d399" stroke-width="1"/>
  <text x="780" y="275" fill="#f8fafc" font-size="11" font-weight="700" text-anchor="middle">🎉 Bob's UI Updates Live!</text>
</svg>